# xmcd
#
# Track frame offsets:
#	150
#	14799
#	30839
#	47612
#	62230
#	78180
#	95905
#	115129
#	129970
#	147302
#	158431
#	172446
#	185007
#	200632
#
# Disc length: 2857 seconds
#
# Revision: 1
# Processed by: cddbd v1.5.2PL0 Copyright (c) Steve Scherf et al.
# Submitted via: audiograbber 1.83.01
#
DISCID=c30b270e
DTITLE=BossHoss, the - Stallion Battalion
DYEAR=2007
DGENRE=Country
TTITLE0=Stallion Battalion
TTITLE1=Monkey Business
TTITLE2=Shake and Shout
TTITLE3=José And Myling
TTITLE4=Free Love On A Free Love Free Way
TTITLE5=Polk Salad Annie
TTITLE6=Omniscient Lover
TTITLE7=Everything Counts
TTITLE8=Goodbye Mary
TTITLE9=Gay Bar
TTITLE10=Truck'n'Roll Rules
TTITLE11=High
TTITLE12=Drop It Like It's Hot
TTITLE13=Jumpin`Around
EXTD=
EXTT0=
EXTT1=
EXTT2=
EXTT3=
EXTT4=
EXTT5=
EXTT6=
EXTT7=
EXTT8=
EXTT9=
EXTT10=
EXTT11=
EXTT12=
EXTT13=
PLAYORDER=
